<?xml version="1.0" encoding="UTF-8"?>
<svg xmlns="http://www.w3.org/2000/svg" xmlns:xlink="http://www.w3.org/1999/xlink" width="375pt" height="112.499997pt" viewBox="0 0 375 112.499997" version="1.2">
<g id="surface1">
<path style=" stroke:none;fill-rule:evenodd;fill:rgb(95.689392%,80.778503%,37.649536%);fill-opacity:1;" d="M 154.078125 56.636719 C 155.515625 58.1875 159.792969 61.964844 161.617188 63.707031 L 166.136719 67.953125 C 167.886719 69.535156 177.75 78.96875 178.335938 79.25 L 202.589844 56.632812 C 201.421875 55.375 198.113281 52.550781 196.566406 51.050781 L 192.003906 46.835938 C 191.730469 46.589844 191.550781 46.394531 191.273438 46.152344 L 182.882812 38.40625 C 182.339844 37.921875 181.898438 37.476562 181.367188 36.996094 C 180.839844 36.519531 180.367188 36.09375 179.835938 35.601562 L 178.335938 34.183594 C 177.820312 34.429688 174.5 37.6875 173.777344 38.320312 C 171.335938 40.457031 168.707031 43.113281 166.1875 45.355469 L 163.160156 48.175781 C 162.617188 48.648438 162.1875 49.105469 161.644531 49.585938 Z M 154.078125 56.636719 "/>
<path style=" stroke:none;fill-rule:evenodd;fill:rgb(100%,100%,100%);fill-opacity:1;" d="M 25.582031 36.425781 C 18.335938 36.425781 11.386719 37.722656 4.316406 40.015625 L 7.910156 47.371094 C 15.035156 45.253906 20.570312 44.839844 25.109375 44.839844 C 29.820312 44.839844 38.304688 45.367188 38.304688 51.960938 C 33.765625 50.429688 28.289062 49.488281 22.339844 49.488281 C 11.324219 49.488281 1.429688 52.3125 1.429688 61.316406 C 1.429688 69.140625 7.496094 72.257812 17.21875 72.257812 C 25.402344 72.257812 32.175781 70.375 38.304688 67.375 L 38.304688 71.667969 L 48.4375 71.667969 L 48.4375 54.195312 C 48.320312 41.074219 40.074219 36.425781 25.582031 36.425781 Z M 38.304688 60.90625 C 33.121094 63.140625 25.582031 64.847656 20.101562 64.847656 C 14.859375 64.847656 11.5 64.550781 11.5 60.90625 C 11.5 57.375 16.035156 56.082031 23.574219 56.082031 C 29.996094 56.082031 34.765625 57.078125 38.300781 58.199219 L 38.300781 60.90625 Z M 90.800781 37.015625 L 49.917969 37.015625 L 49.917969 45.429688 L 75.894531 45.429688 L 49.917969 63.257812 L 49.917969 71.667969 L 90.800781 71.667969 L 90.800781 63.257812 L 64.820312 63.257812 L 90.800781 45.429688 Z M 92.28125 37.015625 L 92.28125 71.671875 L 102.355469 71.671875 L 102.355469 37.015625 Z M 135.117188 36.425781 C 126.691406 36.425781 119.859375 39.195312 114.914062 43.078125 L 114.914062 37.019531 L 104.839844 37.019531 L 104.839844 71.675781 L 114.914062 71.675781 L 114.914062 52.257812 C 118.03125 48.609375 125.339844 45.136719 132.113281 45.136719 C 140.417969 45.136719 142.890625 48.960938 142.890625 56.316406 L 142.890625 71.671875 L 153.023438 71.671875 L 153.140625 52.488281 C 153.023438 39.722656 144.363281 36.425781 135.117188 36.425781 Z M 233.625 36.425781 C 225.203125 36.425781 218.367188 39.195312 213.421875 43.078125 L 213.421875 37.019531 L 203.351562 37.019531 L 203.351562 71.675781 L 213.421875 71.675781 L 213.421875 52.257812 C 216.546875 48.609375 223.847656 45.136719 230.621094 45.136719 C 238.929688 45.136719 241.402344 48.960938 241.402344 56.316406 L 241.402344 71.671875 L 251.535156 71.671875 L 251.65625 52.488281 C 251.535156 39.722656 242.875 36.425781 233.628906 36.425781 Z M 275.988281 64.082031 C 269.273438 64.082031 263.96875 62.257812 262.851562 56.726562 L 300.320312 56.726562 C 300.320312 40.957031 289.773438 36.425781 276.578125 36.425781 C 262.5 36.425781 252.542969 41.601562 252.542969 54.371094 C 252.542969 67.082031 262.789062 72.257812 275.988281 72.257812 C 288.828125 72.257812 297.429688 68.078125 299.726562 59.253906 L 289.710938 59.253906 C 287.179688 62.78125 282.9375 64.078125 275.988281 64.078125 Z M 276.519531 44.078125 C 282.882812 44.078125 287.828125 45.433594 289.539062 50.3125 L 263.207031 50.3125 C 264.796875 45.429688 269.628906 44.078125 276.519531 44.078125 Z M 334.140625 45.433594 L 334.140625 37.019531 L 317.707031 37.019531 L 317.707031 26.957031 L 307.574219 29.839844 L 307.574219 37.019531 L 298.445312 37.019531 L 298.445312 45.433594 L 307.574219 45.433594 L 307.574219 61.261719 C 307.574219 68.910156 313.347656 72.261719 322.300781 72.261719 C 326.953125 72.261719 330.785156 71.96875 334.140625 71.378906 L 334.140625 63.261719 C 330.078125 63.847656 328.308594 63.847656 325.128906 63.847656 C 319 63.847656 317.707031 62.140625 317.707031 55.433594 L 317.707031 45.429688 L 334.140625 45.429688 Z M 334.140625 45.433594 "/>
<path style=" stroke:none;fill-rule:evenodd;fill:rgb(95.689392%,80.778503%,37.649536%);fill-opacity:1;" d="M 145.511719 83.703125 C 147.457031 85.570312 153.246094 90.105469 155.707031 92.203125 L 161.824219 97.304688 C 164.195312 99.207031 177.539062 110.539062 178.332031 110.882812 L 211.152344 83.703125 C 210.347656 61.492188 185.105469 88.054688 178.332031 93.660156 C 177.539062 93.320312 164.195312 81.988281 161.824219 80.085938 C 153.445312 73.394531 146.464844 77.644531 145.511719 83.703125 Z M 145.511719 83.703125 "/>
<path style=" stroke:none;fill-rule:evenodd;fill:rgb(95.689392%,80.778503%,37.649536%);fill-opacity:1;" d="M 92.160156 24.449219 L 102.683594 24.449219 L 102.683594 33.851562 L 92.160156 33.851562 Z M 92.160156 24.449219 "/>
</g>
</svg>
